PathFileType	4	(X/Y/Z)	D:\Long Term Storage\D'Arcy Smith\Coord15.trc
DataRate	CameraRate	NumFrames	NumMarkers	Units	OrigDataRate	OrigDataStartFrame	OrigNumFrames
120.00	120.00	      48	4	mm	120.00	1211	      4841
Frame#	Time	M1			M2			M3			M4			
		X1	Y1	Z1	X2	Y2	Z2	X3	Y3	Z3	X4	Y4	Z4	

1211	10.083	1092.90381	377.03415	145.64319	1688.52258	390.57797	179.58401							
1212	10.092	1092.26013	371.07727	150.97707	1688.79846	381.83798	188.35771							
1213	10.100	1091.59033	364.81870	156.70566	1689.06836	372.99820	197.63878							
1214	10.108	1090.74036	357.98553	163.12941	1689.12646	364.07083	207.71062							
1215	10.117	1089.76062	350.83337	170.20367	1689.38184	355.25842	218.40208							
1216	10.125	1088.97156	343.34232	177.93474	1689.59814	346.10715	229.71251							
1217	10.133	1087.77600	335.77557	186.25433	1689.48633	337.70105	241.81654							
1218	10.142	1086.68298	327.94485	195.34457	1689.77209	329.26871	254.43840							
1219	10.150	1085.43994	320.05701	205.15091	1689.51636	320.95804	267.57227							
1220	10.158	1084.26477	312.46640	215.63641	1689.24792	313.40506	281.51834							
1221	10.167	1082.93225	304.84540	226.94107	1689.24402	305.84436	296.08203							
1222	10.175	1081.73511	297.71872	238.93407	1688.92346	299.32181	311.44250							
1223	10.183	1080.39514	290.70062	251.71211	1688.65149	293.19034	327.07574							
1224	10.192	1079.07690	284.03616	264.97787	1688.28870	287.62491	343.22983							
1225	10.200	1077.78564	277.88550	278.90744	1688.12708	282.58350	359.43216							
1226	10.208	1076.32935	272.20410	293.13208	1687.26526	278.20154	376.07068							
1227	10.217	1074.94824	267.16309	307.91562	1687.69702	274.99203	392.81894							
1228	10.225	1073.62415	262.75302	322.71213	1687.21887	272.16803	409.62952							
1229	10.233	1071.90320	259.06113	338.93073	1686.16907	270.06308	426.40561							
1230	10.242	1070.31177	254.78535	356.66772	1686.31592	269.00366	443.01468							
1231	10.250	1068.93140	252.61494	372.07208	1685.28564	268.29568	459.53046							
1232	10.258	1067.28137	250.98586	387.66522	1685.63208	268.93387	475.62396							
1233	10.267	1065.79004	250.66548	403.05942	1685.06335	269.96927	491.36749							
1234	10.275	1064.52844	250.82047	417.80283	1684.43164	271.70450	506.58948							
1235	10.283	1063.16187	251.79733	432.81827	1683.69788	273.93884	521.07727							
1236	10.292	1061.74573	253.19672	447.39484	1683.02966	276.64697	534.81281							
1237	10.300	1060.30908	254.94881	461.44675	1681.97620	279.93082	547.76978							
1238	10.308	1058.86023	257.35284	475.36890	1681.57104	283.31650	559.79578							
1239	10.317	1057.33875	260.08719	488.54871	1680.61914	286.90134	570.74402							
1240	10.325	1056.01587	263.23157	500.75687	1679.53101	290.79877	580.81287							
1241	10.333	1054.47717	266.97079	511.40005	1678.38025	294.46759	589.61029							
1242	10.342	1052.95703	270.52563	521.59631	1677.28284	298.01657	597.34125							
1243	10.350	1051.49463	274.56348	531.68073	1675.92090	301.20746	604.00586							
1244	10.358	1050.21033	278.01083	540.41449	1674.59241	304.06476	609.34882							
1245	10.367	1048.98279	281.58060	548.11664	1673.05811	306.37790	613.54034							
1246	10.375	1047.81946	284.73572	554.86713	1671.65344	308.35129	616.48242							
1247	10.383	1046.47058	287.67325	560.51099	1670.01648	309.67505	618.35046							
1248	10.392	1045.33411	290.39847	565.11951	1668.45325	310.23553	618.95923							
1249	10.400	1044.26440	292.32574	568.67236	1666.91089	310.35773	618.51105							
1250	10.408	1043.32666	293.98077	571.15265	1665.41064	309.98212	616.94098							
1251	10.417	1042.27588	295.07288	572.54047	1663.80811	309.35855	614.35339							
1252	10.425	1041.39246	296.22598	574.76306	1662.49756	307.67026	610.60907							
1253	10.433	1040.48621	296.62833	574.23688	1660.95825	305.82773	605.93488							
1254	10.442	1039.65637	296.57242	572.78204	1659.59509	303.78973	600.35144							
1255	10.450	1038.66858	295.87637	568.43896	1658.25366	301.45850	593.83057							
1256	10.458	1037.99731	295.36353	564.82343	1656.88245	298.91684	586.45868							
1257	10.467	1037.32507	294.35522	560.27795	1655.51672	296.17444	578.16943							
1258	10.475	1036.68054	293.03738	555.23486	1654.34363	293.43069	569.13031							
